<svg width="229" height="38" viewBox="0 0 229 38" fill="none" xmlns="http://www.w3.org/2000/svg">
<path d="M68.1705 30.1473V6.32067H90.1635V10.722H72.5824V16.0168H86.7136V20.4512H72.5824V30.1473H68.1705Z" fill="white"/>
<path d="M96.4879 30.1473C95.6476 30.1473 94.8846 29.9377 94.1991 29.5185C93.5135 29.0993 92.9606 28.5478 92.5405 27.8639C92.1203 27.18 91.9102 26.4188 91.9102 25.5805V15.5204C91.9102 14.682 92.1203 13.9209 92.5405 13.237C92.9606 12.5531 93.5135 12.0015 94.1991 11.5824C94.8846 11.1632 95.6476 10.9536 96.4879 10.9536H106.871C107.711 10.9536 108.474 11.1632 109.16 11.5824C109.867 12.0015 110.42 12.5531 110.818 13.237C111.238 13.9209 111.448 14.682 111.448 15.5204V25.5805C111.448 26.4188 111.238 27.18 110.818 27.8639C110.42 28.5478 109.878 29.0993 109.193 29.5185C108.507 29.9377 107.733 30.1473 106.871 30.1473H96.4879ZM96.6538 25.8121H106.705C106.815 25.8121 106.904 25.779 106.97 25.7129C107.059 25.6246 107.103 25.5253 107.103 25.415V15.6858C107.103 15.5755 107.059 15.4873 106.97 15.4211C106.904 15.3329 106.815 15.2887 106.705 15.2887H96.6538C96.5432 15.2887 96.4437 15.3329 96.3552 15.4211C96.2889 15.4873 96.2557 15.5755 96.2557 15.6858V25.415C96.2557 25.5253 96.2889 25.6246 96.3552 25.7129C96.4437 25.779 96.5432 25.8121 96.6538 25.8121Z" fill="white"/>
<path d="M114.198 30.1473V15.5204C114.198 14.682 114.408 13.9209 114.829 13.237C115.249 12.5531 115.802 12.0015 116.487 11.5824C117.195 11.1632 117.958 10.9536 118.776 10.9536H129.457V15.2887H118.942C118.831 15.2887 118.732 15.3329 118.643 15.4211C118.577 15.4873 118.544 15.5755 118.544 15.6858V30.1473H114.198Z" fill="white"/>
<path d="M134.609 37.7254V33.3572H146.186C146.296 33.3572 146.385 33.3131 146.451 33.2249C146.54 33.1587 146.584 33.0704 146.584 32.9601V30.1473H135.969C135.151 30.1473 134.388 29.9377 133.68 29.5185C132.995 29.0993 132.442 28.5478 132.021 27.8639C131.601 27.18 131.391 26.4188 131.391 25.5805V15.5204C131.391 14.682 131.601 13.9209 132.021 13.237C132.442 12.5531 132.995 12.0015 133.68 11.5824C134.388 11.1632 135.151 10.9536 135.969 10.9536H146.385C147.225 10.9536 147.988 11.1632 148.674 11.5824C149.359 12.0015 149.901 12.5531 150.299 13.237C150.719 13.9209 150.929 14.682 150.929 15.5204V33.1587C150.929 34.0191 150.73 34.7912 150.332 35.4751C149.934 36.1591 149.381 36.6996 148.674 37.0967C147.988 37.5159 147.225 37.7254 146.385 37.7254H134.609ZM136.135 25.8121H146.186C146.296 25.8121 146.385 25.779 146.451 25.7129C146.54 25.6246 146.584 25.5253 146.584 25.415V15.6858C146.584 15.5755 146.54 15.4873 146.451 15.4211C146.385 15.3329 146.296 15.2887 146.186 15.2887H136.135C136.024 15.2887 135.925 15.3329 135.836 15.4211C135.77 15.4873 135.737 15.5755 135.737 15.6858V25.415C135.737 25.5253 135.77 25.6246 135.836 25.7129C135.925 25.779 136.024 25.8121 136.135 25.8121Z" fill="white"/>
<path d="M158.264 30.1473C157.424 30.1473 156.661 29.9377 155.975 29.5185C155.29 29.0993 154.737 28.5478 154.317 27.8639C153.896 27.18 153.686 26.4188 153.686 25.5805V15.5204C153.686 14.682 153.896 13.9209 154.317 13.237C154.737 12.5531 155.29 12.0015 155.975 11.5824C156.661 11.1632 157.424 10.9536 158.264 10.9536H168.647C169.487 10.9536 170.25 11.1632 170.936 11.5824C171.643 12.0015 172.196 12.5531 172.594 13.237C173.015 13.9209 173.225 14.682 173.225 15.5204V22.7345H158.032V25.415C158.032 25.5253 158.065 25.6246 158.131 25.7129C158.22 25.779 158.319 25.8121 158.43 25.8121H173.225V30.1473H158.264ZM158.032 18.8296H168.879V15.6858C168.879 15.5755 168.835 15.4873 168.746 15.4211C168.68 15.3329 168.592 15.2887 168.481 15.2887H158.43C158.319 15.2887 158.22 15.3329 158.131 15.4211C158.065 15.4873 158.032 15.5755 158.032 15.6858V18.8296Z" fill="white"/>
<path d="M180.487 30.1473C179.647 30.1473 178.884 29.9377 178.199 29.5185C177.513 29.0993 176.96 28.5478 176.54 27.8639C176.12 27.18 175.91 26.4188 175.91 25.5805V4.63295H180.288V25.415C180.288 25.5253 180.322 25.6246 180.388 25.7129C180.476 25.779 180.576 25.8121 180.686 25.8121H184.369V30.1473H180.487Z" fill="white"/>
<path d="M191.404 30.1473C190.563 30.1473 189.8 29.9377 189.115 29.5185C188.429 29.0993 187.876 28.5478 187.456 27.8639C187.036 27.18 186.826 26.4188 186.826 25.5805V15.5204C186.826 14.682 187.036 13.9209 187.456 13.237C187.876 12.5531 188.429 12.0015 189.115 11.5824C189.8 11.1632 190.563 10.9536 191.404 10.9536H201.786C202.627 10.9536 203.39 11.1632 204.075 11.5824C204.783 12.0015 205.336 12.5531 205.734 13.237C206.154 13.9209 206.364 14.682 206.364 15.5204V25.5805C206.364 26.4188 206.154 27.18 205.734 27.8639C205.336 28.5478 204.794 29.0993 204.108 29.5185C203.423 29.9377 202.649 30.1473 201.786 30.1473H191.404Z" fill="white"/>
<path d="M212.679 37.7254V33.3572H224.256C224.367 33.3572 224.455 33.3131 224.522 33.2249C224.61 33.1587 224.654 33.0704 224.654 32.9601V30.1473H214.039C213.221 30.1473 212.458 29.9377 211.751 29.5185C211.065 29.0993 210.512 28.5478 210.092 27.8639C209.672 27.18 209.462 26.4188 209.462 25.5805V15.5204C209.462 14.682 209.672 13.9209 210.092 13.237C210.512 12.5531 211.065 12.0015 211.751 11.5824C212.458 11.1632 213.221 10.9536 214.039 10.9536H224.455C225.296 10.9536 226.059 11.1632 226.744 11.5824C227.43 12.0015 227.972 12.5531 228.37 13.237C228.79 13.9209 229 14.682 229 15.5204V33.1587C229 34.0191 228.801 34.7912 228.403 35.4751C228.005 36.1591 227.452 36.6996 226.744 37.0967C226.059 37.5159 225.296 37.7254 224.455 37.7254H212.679ZM214.205 25.8121H224.256C224.367 25.8121 224.455 25.779 224.522 25.7129C224.61 25.6246 224.654 25.5253 224.654 25.415V15.6858C224.654 15.5755 224.61 15.4873 224.522 15.4211C224.455 15.3329 224.367 15.2887 224.256 15.2887H214.205C214.095 15.2887 213.995 15.3329 213.907 15.4211C213.84 15.4873 213.807 15.5755 213.807 15.6858V25.415C213.807 25.5253 213.84 25.6246 213.907 25.7129C213.995 25.779 214.095 25.8121 214.205 25.8121Z" fill="white"/>
<path d="M45.484 11.9505C45.484 11.9505 57.6455 10.032 59.5665 4.4377H40.9346V0H0L5.0433 5.85241V11.8463C5.0433 11.8463 17.7682 11.1861 22.6899 14.9164C29.4258 21.161 15.1125 29.6021 15.1125 29.6021L12.6554 37.7254H50.1053L47.5514 29.6021C47.5514 29.6021 27.8995 18.0164 45.484 11.9505Z" fill="#2A9A1E"/>
</svg>
